<svg xmlns="http://www.w3.org/2000/svg" viewBox="0 0 1280 760">
  <rect width="1280" height="760" rx="42" fill="#08111d"/>
  <rect x="44" y="44" width="710" height="672" rx="32" fill="#0e1d34" stroke="#244061"/>
  <text x="86" y="104" fill="#eff6ff" font-family="Arial" font-size="34" font-weight="700">WhisApp flow</text>
  <rect x="86" y="144" width="340" height="76" rx="22" fill="#142845"/>
  <rect x="86" y="246" width="420" height="112" rx="28" fill="#12253f"/>
  <rect x="260" y="390" width="420" height="132" rx="28" fill="#2d69ff"/>
  <rect x="86" y="554" width="500" height="108" rx="28" fill="#15395c"/>
  <rect x="794" y="44" width="442" height="204" rx="30" fill="#0f1c31"/>
  <text x="832" y="112" fill="#8fe9ff" font-family="Arial" font-size="24">Live location</text>
  <path d="M840 212c94-40 162-34 222-104 54-64 94-74 126-90" fill="none" stroke="#58dbff" stroke-width="10" stroke-linecap="round"/>
  <rect x="794" y="280" width="442" height="204" rx="30" fill="#0f1c31"/>
  <text x="832" y="348" fill="#8fe9ff" font-family="Arial" font-size="24">Screen mirroring</text>
  <rect x="832" y="382" width="364" height="70" rx="22" fill="#18304f"/>
  <rect x="794" y="516" width="442" height="200" rx="30" fill="#0f1c31"/>
  <text x="832" y="584" fill="#8fe9ff" font-family="Arial" font-size="24">Ownership + profile</text>
  <rect x="832" y="618" width="160" height="38" rx="12" fill="#233854"/>
  <rect x="1012" y="618" width="184" height="38" rx="12" fill="#233854"/>
</svg>
