<svg xmlns="http://www.w3.org/2000/svg" viewBox="0 0 256 256" fill="none">
  <defs>
    <linearGradient id="garage-bg" x1="34" y1="24" x2="222" y2="232" gradientUnits="userSpaceOnUse">
      <stop stop-color="#7A8597" />
      <stop offset="0.36" stop-color="#303848" />
      <stop offset="1" stop-color="#0F141D" />
    </linearGradient>
    <radialGradient id="garage-sheen" cx="0" cy="0" r="1" gradientUnits="userSpaceOnUse" gradientTransform="translate(86 60) rotate(47) scale(116 104)">
      <stop stop-color="#FFFFFF" stop-opacity="0.34" />
      <stop offset="1" stop-color="#FFFFFF" stop-opacity="0" />
    </radialGradient>
    <linearGradient id="garage-car" x1="66" y1="118" x2="192" y2="174" gradientUnits="userSpaceOnUse">
      <stop stop-color="#FFFFFF" />
      <stop offset="1" stop-color="#C9D3E5" />
    </linearGradient>
  </defs>

  <rect width="256" height="256" rx="64" fill="#0A0D13" />
  <rect x="24" y="24" width="208" height="208" rx="56" fill="url(#garage-bg)" />
  <rect x="24" y="24" width="208" height="208" rx="56" fill="url(#garage-sheen)" />
  <rect x="44" y="44" width="168" height="168" rx="44" fill="rgba(255,255,255,0.04)" stroke="rgba(255,255,255,0.12)" />
  <path d="M69 147c0-11.6 9.4-21 21-21h6.7l12-21.5c4.5-8 13-13 22.2-13h16.2c9.2 0 17.7 5 22.2 13l12 21.5h5.7c11.6 0 21 9.4 21 21v16c0 8.3-6.7 15-15 15h-5.5c-6.9 0-12.5-5.6-12.5-12.5V164H81v1.5C81 172.4 75.4 178 68.5 178H63c-8.3 0-15-6.7-15-15v-16Z" fill="none" stroke="url(#garage-car)" stroke-width="10" stroke-linecap="round" stroke-linejoin="round" />
  <path d="M94 124h68" stroke="rgba(255,255,255,0.42)" stroke-width="8" stroke-linecap="round" />
  <circle cx="89" cy="155" r="8" fill="white" />
  <circle cx="167" cy="155" r="8" fill="white" />
  <path d="M74 146h12M170 146h12" stroke="#8BE7FF" stroke-width="6" stroke-linecap="round" />
</svg>
