<svg xmlns="http://www.w3.org/2000/svg" viewBox="0 0 256 256" fill="none">
  <defs>
    <linearGradient id="cloud-bg" x1="16" y1="12" x2="236" y2="244" gradientUnits="userSpaceOnUse">
      <stop stop-color="#DFF3FF" />
      <stop offset="0.42" stop-color="#A8DAFF" />
      <stop offset="1" stop-color="#5BAEFF" />
    </linearGradient>
    <radialGradient id="cloud-glow" cx="0" cy="0" r="1" gradientUnits="userSpaceOnUse" gradientTransform="translate(88 58) rotate(36) scale(138 126)">
      <stop stop-color="#FFFFFF" stop-opacity="0.96" />
      <stop offset="0.34" stop-color="#FFFFFF" stop-opacity="0.24" />
      <stop offset="1" stop-color="#FFFFFF" stop-opacity="0" />
    </radialGradient>
    <linearGradient id="cloud-fill" x1="76" y1="70" x2="182" y2="184" gradientUnits="userSpaceOnUse">
      <stop stop-color="#FFFFFF" />
      <stop offset="1" stop-color="#F3FAFF" />
    </linearGradient>
    <filter id="cloud-shadow" x="0" y="0" width="256" height="256" filterUnits="userSpaceOnUse" color-interpolation-filters="sRGB">
      <feDropShadow dx="0" dy="16" stdDeviation="16" flood-color="#2B79C4" flood-opacity="0.2" />
    </filter>
  </defs>

  <rect width="256" height="256" rx="64" fill="#D4EAFF" />
  <g filter="url(#cloud-shadow)">
    <rect x="10" y="10" width="236" height="236" rx="58" fill="url(#cloud-bg)" />
    <rect x="10" y="10" width="236" height="236" rx="58" fill="url(#cloud-glow)" />
    <rect x="10.5" y="10.5" width="235" height="235" rx="57.5" stroke="rgba(255,255,255,0.42)" />

    <path
      d="M82 170C64.327 170 50 155.673 50 138C50 121.431 62.585 107.801 78.724 106.145C84.2 85.209 103.26 70 126 70C145.222 70 161.828 80.877 169.989 96.79C171.976 96.267 174.061 96 176.208 96C189.899 96 201 107.101 201 120.792C201 122.859 200.747 124.867 200.271 126.787C207.787 132.073 212.708 140.814 212.708 150.708C212.708 166.779 199.679 179.808 183.608 179.808H82V170Z"
      fill="url(#cloud-fill)"
    />
    <path
      d="M82 170C64.327 170 50 155.673 50 138C50 121.431 62.585 107.801 78.724 106.145C84.2 85.209 103.26 70 126 70C145.222 70 161.828 80.877 169.989 96.79C171.976 96.267 174.061 96 176.208 96C189.899 96 201 107.101 201 120.792C201 122.859 200.747 124.867 200.271 126.787C207.787 132.073 212.708 140.814 212.708 150.708C212.708 166.779 199.679 179.808 183.608 179.808H82V170Z"
      stroke="rgba(103,175,241,0.28)"
      stroke-width="4"
      stroke-linejoin="round"
    />
    <path d="M86 158C104 164 146 164 182 154" stroke="rgba(103,175,241,0.18)" stroke-width="6" stroke-linecap="round" />
  </g>
</svg>
