<svg xmlns="http://www.w3.org/2000/svg" viewBox="0 0 256 256" fill="none">
  <defs>
    <linearGradient id="whis-bg" x1="36" y1="28" x2="222" y2="230" gradientUnits="userSpaceOnUse">
      <stop stop-color="#69F6BF" />
      <stop offset="0.5" stop-color="#16C47F" />
      <stop offset="1" stop-color="#067A4E" />
    </linearGradient>
    <radialGradient id="whis-glow" cx="0" cy="0" r="1" gradientUnits="userSpaceOnUse" gradientTransform="translate(92 64) rotate(48.5) scale(112 98)">
      <stop stop-color="#FFFFFF" stop-opacity="0.42" />
      <stop offset="1" stop-color="#FFFFFF" stop-opacity="0" />
    </radialGradient>
  </defs>

  <rect width="256" height="256" rx="64" fill="#07140F" />
  <rect x="24" y="24" width="208" height="208" rx="54" fill="url(#whis-bg)" />
  <rect x="24" y="24" width="208" height="208" rx="54" fill="url(#whis-glow)" />
  <path d="M129.7 58C91 58 60 87.7 60 124.5c0 16.3 6.1 31.3 16.2 42.8L68 198l31.7-8.3c8.8 4.9 18.9 7.6 30 7.6 38.7 0 69.7-29.7 69.7-66.5S168.4 58 129.7 58Z" fill="white" fill-opacity="0.98"/>
  <path d="M112.3 100.5c2.5-5.4 7.4-5.3 9.6-5.2 1.9 0 4 .1 5.8 4.1 1.8 4 6.3 15.2 6.8 16.3.5 1.1.8 2.4.1 3.9-.7 1.5-1 2.4-2 3.7-1 1.3-2.1 2.9-3 3.9-1 1.1-2 2.2-.9 4.3 1.1 2.1 4.8 7.8 10.3 12.7 7.1 6.3 13.1 8.3 15 9.2 1.9.9 3 .8 4.1-.5 1.1-1.3 4.8-5.6 6.1-7.6 1.3-2 2.6-1.7 4.3-1 1.8.7 11 5.2 12.9 6.1 1.9 1 3.2 1.5 3.7 2.4.5.9.5 5.1-1.2 10-1.7 4.9-9.8 9.3-13.3 9.8-3.4.5-7.7.7-25-6.1-20.9-8.1-34.4-28.1-35.5-29.6-1-1.5-8.5-11.3-8.5-21.6 0-10.3 5.3-15.3 7.2-17.5Z" fill="url(#whis-bg)"/>
</svg>
